<?xml version="1.0" encoding="UTF-8"?>
<svg id="Camada_1" data-name="Camada 1" xmlns="http://www.w3.org/2000/svg" xmlns:xlink="http://www.w3.org/1999/xlink" viewBox="0 0 226.68 104.89">
  <defs>
    <style>
      .cls-1 {
        fill: url(#Gradiente_sem_nome_186);
      }

      .cls-2 {
        fill: url(#Gradiente_sem_nome_29-4);
      }

      .cls-3 {
        fill: url(#Gradiente_sem_nome_192);
        stroke: #fff;
        stroke-miterlimit: 10;
        stroke-width: .5px;
      }

      .cls-4 {
        fill: url(#Gradiente_sem_nome_29-5);
      }

      .cls-5 {
        fill: #b9bfc6;
      }

      .cls-6 {
        fill: url(#Gradiente_sem_nome_29-2);
      }

      .cls-7 {
        fill: url(#Gradiente_sem_nome_29);
      }

      .cls-8 {
        fill: url(#Gradiente_sem_nome_29-3);
      }
    </style>
    <radialGradient id="Gradiente_sem_nome_186" data-name="Gradiente sem nome 186" cx="125.44" cy="36.48" fx="125.44" fy="36.48" r="53.91" gradientTransform="translate(307.03 100.15) rotate(150) scale(1 4)" gradientUnits="userSpaceOnUse">
      <stop offset=".09" stop-color="#0ee5ff"/>
      <stop offset=".56" stop-color="#0ee5ff"/>
      <stop offset=".94" stop-color="#068aff"/>
    </radialGradient>
    <linearGradient id="Gradiente_sem_nome_192" data-name="Gradiente sem nome 192" x1="192.41" y1="36.48" x2="58.46" y2="36.48" gradientUnits="userSpaceOnUse">
      <stop offset=".03" stop-color="#0ee8ff"/>
      <stop offset=".27" stop-color="#0ee4ff"/>
      <stop offset=".44" stop-color="#0ee3ff"/>
      <stop offset=".53" stop-color="#0edfff"/>
      <stop offset=".77" stop-color="#0791ff"/>
      <stop offset=".99" stop-color="#068aff"/>
      <stop offset="1" stop-color="#068bff"/>
    </linearGradient>
    <linearGradient id="Gradiente_sem_nome_29" data-name="Gradiente sem nome 29" x1="109.49" y1="92.4" x2="138.89" y2="92.4" gradientUnits="userSpaceOnUse">
      <stop offset="0" stop-color="#0ee8ff"/>
      <stop offset="1" stop-color="#068aff"/>
    </linearGradient>
    <linearGradient id="Gradiente_sem_nome_29-2" data-name="Gradiente sem nome 29" x1="134.24" y1="92.55" x2="161.74" y2="92.55" xlink:href="#Gradiente_sem_nome_29"/>
    <linearGradient id="Gradiente_sem_nome_29-3" data-name="Gradiente sem nome 29" x1="158.96" y1="93.84" x2="181.24" y2="93.84" xlink:href="#Gradiente_sem_nome_29"/>
    <linearGradient id="Gradiente_sem_nome_29-4" data-name="Gradiente sem nome 29" x1="178.05" y1="93.11" x2="203.06" y2="93.11" xlink:href="#Gradiente_sem_nome_29"/>
    <linearGradient id="Gradiente_sem_nome_29-5" data-name="Gradiente sem nome 29" x1="200.95" y1="93.16" x2="226.68" y2="93.16" xlink:href="#Gradiente_sem_nome_29"/>
  </defs>
  <path class="cls-1" d="M98.94,21.35l.27-.33c.21-.26.18-.26.43-.65,1.32-2.13,3.38-6.22-2.74-5.4,0,0-.99.27-1.69,1.48-1.44,2.48-3.93,7.07.95,16.06.65,1.21,1.16,2.72,2.36,3.84,1.92,1.8,4.24,3.3,5.63,3.76,13.7,4.49,21.2-15.7,50.04-22.08,0,0,22.51-4.85,38.34,22.72,0,0-14.94-4.51-24.38,1.69,0,0-28.98,26.56-40.98,28.95,0,0-21.83,3.83-39.19-1.53-6.01-2.59-28.26-15.57-29.62-35.23.3-5.11,1.54-26.89,23.74-33.19,0,0,10.69-2.67,17.36,0,7.02,2.81,18.89,10.98,12.26,22.72,0,0-5.62,8.17-10.98,3.06,0,0-3.27-3.43-1.79-5.87Z"/>
  <path class="cls-3" d="M190.92,39.78c-4.35-2.47-6.97-5.68-8.46-6.66-9.33-6.16-21-1-31,3-8,4-16,9-24,15-9,6-20,7-30,3-8-4-15-8-21-14-6-8-5-20,2-28,7.08-8.09,21.07-8.88,25-4,4.27,5.31-4.11,16.25.62,20.75h0c4.17.49,7.75-4.7,7.75-4.7,6.64-11.74-5.23-19.91-12.26-22.72-6.67-2.67-17.36,0-17.36,0-22.2,6.3-23.45,28.09-23.74,33.19,1.36,19.66,23.61,32.65,29.62,35.23,17.36,5.36,39.19,1.53,39.19,1.53,12-2.38,40.98-28.95,40.98-28.95,8.77-5.76,22.26-2.29,24.15-1.76-.42-.27-.9-.58-1.48-.91Z"/>
  <path class="cls-5" d="M11.88,96.14c0-.3.44-.84,1.32-1.62.88-.78,1.33-1.24,1.33-1.38,0-.2-.46-.43-1.38-.7-.92-.27-1.69-.4-2.33-.4-1.1,0-2.22.05-3.38.15-1.15.1-1.98.17-2.5.2-.52.03-1.02,0-1.5-.08-.48-.08-.88-.27-1.17-.58-.37-.3-.59-.63-.67-1-.08-.37-.12-1.1-.12-2.2,0-1.67.27-3.05.82-4.15.55-1.1.97-1.73,1.25-1.9.28-.17,1.26-.43,2.93-.8,1.03-.23,1.8-.38,2.3-.45.5-.07.81-.08.92-.05.12.03.22.09.3.17.08.08.17.18.27.28.1.1.41.19.92.27.52.08,1.24.12,2.18.12,1.87,0,2.88.12,3.05.35.1.2-.04.64-.42,1.32-.38.68-.59,1.08-.62,1.18,0,.23-1.17.33-3.5.3-2.27-.03-3.93.11-5,.42-1.07.32-1.92.91-2.55,1.78-.53,1.07-.67,1.63-.4,1.7.33,0,1.07.18,2.2.55.8.27,1.37.4,1.7.4s.87-.13,1.6-.4c1.47-.5,3.27-.62,5.4-.35,1.13.2,1.65.47,1.55.8-.07.13.06.37.38.7.32.33.48.62.48.85,0,.2.17.47.5.8.33.33.4.6.2.8-.17.17-.23.33-.2.48.03.15.12.27.25.35.13.08.13.22,0,.4-.13.18-.43.43-.9.73-1.23.73-1.85,1.78-1.85,3.15,0,.5-.52,1.2-1.55,2.1-1.1.97-2.06,1.61-2.88,1.92-.82.32-1.91.48-3.27.48-.9,0-1.68.06-2.35.18-.67.12-1.09.22-1.27.3-.18.08-.36.1-.52.05-.17-.05-.37-.22-.6-.52-.17-.23-.4-.42-.7-.57-.3-.15-.68-.29-1.15-.43-.3-.07-.51-.13-.62-.2-.12-.07-.21-.15-.27-.25-.07-.1,0-.22.17-.35.18-.13.48-.32.88-.55.27-.13.58-.32.93-.55.35-.23.61-.38.77-.45.17-.07.48-.14.92-.22.45-.08,1.09-.14,1.93-.18,1.23-.1,2.09-.23,2.57-.4.48-.17.92-.42,1.3-.75.38-.33.86-.62,1.42-.85.63-.27.95-.58.95-.95ZM7,101.04c.55-.13.82-.31.82-.52s-.33-.33-1-.33-1.06.1-1.17.3c-.12.2-.06.38.17.55.23.13.62.13,1.18,0ZM12.18,99.49c0-.2-.15-.3-.45-.3-.27,0-.55.17-.85.5-.3.33-.38.57-.25.7.13.13.42.07.88-.2.45-.27.67-.5.67-.7ZM15.48,90.49c.07-.17-.03-.27-.3-.3-.7-.13-1.3,0-1.8.4-.13.07-.2.15-.2.25,0,.17.18.25.55.25s.74-.06,1.12-.17c.38-.12.59-.26.62-.43Z"/>
  <path class="cls-5" d="M34.38,94.79c-.33,0-.64-.5-.92-1.5-.28-1-.5-1.5-.65-1.5s-.24.15-.27.45c-.03.3,0,.66.07,1.07.08.42.23.81.43,1.18.33.63.62,2.13.85,4.5.17,1.6.24,2.63.23,3.1-.02.47-.14.83-.38,1.1-.37.4-.55.78-.55,1.15s-.1.55-.3.55-.35-.57-.45-1.7c-.13-1.27-.33-1.92-.6-1.95-.1,0-.25.08-.45.25-.37.3-.72.18-1.05-.35-.33-.53-.5-.98-.5-1.35,0-.4-.13-.6-.4-.6-.17,0-.25.38-.25,1.15v2.35c0,.8-.07,1.22-.2,1.25-.13.03-.26-.58-.38-1.85-.12-1.27-.23-2.67-.32-4.2-.1-1.53-.2-2.48-.3-2.85-.17-.63-.08-1.13.25-1.5.37-.6.45-1.95.25-4.05-.2-2.1-.38-3.23-.55-3.4-.13-.13-.94-.26-2.43-.38-1.48-.12-2.92-.25-4.32-.4s-2.1-.32-2.1-.52c0-.17.13-.43.4-.8.2-.27.77-.45,1.7-.55.93-.1,2.97-.2,6.1-.3,2.87-.13,5-.22,6.4-.25,1.4-.03,2.57-.06,3.5-.08.93-.02,1.51,0,1.73.02.22.03.32.1.32.2,0,.2-.17.37-.5.5-.7.27-.8.47-.3.6.37.1.9.12,1.6.05,1.17-.13,1.85-.07,2.05.2.1.2.09.38-.02.52-.12.15-.33.27-.62.38-.3.1-.65.15-1.05.15-.5,0-.98.12-1.45.38-.47.25-1.32.46-2.55.62-1.5.17-2.37.37-2.6.6-.17.17-.12,1.23.12,3.17.25,1.95.51,3.29.77,4.03.17.37.07.55-.3.55ZM29,87.29c.18.2.4.3.65.3s.47-.1.65-.3c.18-.2.23-.39.12-.58-.1-.18-.37-.27-.8-.27s-.69.09-.77.27c-.08.18-.03.38.15.58Z"/>
  <path class="cls-5" d="M52.18,81.94c0-.47.26-.83.78-1.1.52-.27.92-.03,1.22.7.1.33.33.57.7.7.37.13,1.15.28,2.35.45,1.9.23,3.53.35,4.9.35,1.53,0,2.32.22,2.35.65,0,.17-.12.4-.35.7-.4.4-.54.67-.42.82.12.15.33.23.65.23s.63.04.95.12c.32.08.48.26.48.52s-.33.43-1,.5c-.67.07-1.34.16-2.02.27-.68.12-1.06.36-1.12.73-.1.53-.31.85-.62.95-.32.1-.67.07-1.08-.1-.4-.17-.97-.33-1.7-.48-.73-.15-1.43-.17-2.1-.07-.57.1-.94.12-1.12.07-.18-.05-.31-.21-.38-.48-.1-.4-.38-.67-.85-.82-.47-.15-.91-.13-1.32.05-.42.18-.62.49-.62.93,0,.27-.23.8-.7,1.6-.63,1.07-.72,1.67-.25,1.8.43.13,1.05-.2,1.85-1,.73-.7,1.1-.95,1.1-.75,0,.13-.12.37-.35.7-.23.33-.3.65-.2.95.07.2.32.33.75.4.43.07,1.27.1,2.5.1,2,0,3,.15,3,.45,0,.37-.17.67-.5.9-.33.23-.78.35-1.35.35-.53,0-1,.12-1.4.38s-.67.57-.8.97c-.1.27-.48.23-1.15-.1-.4-.2-.98-.38-1.73-.55-.75-.17-1.38-.25-1.9-.25s-.81.07-.88.2c0,.23.11.35.32.35s.33.11.33.32-.2.33-.6.33c-.27,0-.6.32-1,.98-.4.65-.52,1.06-.35,1.22.1.1.98.26,2.62.48,1.65.22,3.45.46,5.4.73,1.95.27,3.23.52,3.83.75.9.3,1.35.63,1.35,1,0,.27-.3.38-.9.35-.63-.07-.95,0-.95.2,0,.7-.25,1.13-.75,1.3-.57.23-2.43.4-5.6.5-1.8.13-3.26.17-4.38.1-1.12-.07-1.78-.12-2-.18-.22-.05-.6-.18-1.15-.4-.55-.22-1.14-.39-1.77-.52-.53-.13-.86-.55-.98-1.25-.12-.7.06-1.23.52-1.6.43-.33.64-.57.62-.7-.02-.13-.24-.25-.67-.35-.33-.1-.52-.24-.58-.43-.05-.18-.02-.62.08-1.32.13-1.03.58-2.38,1.35-4.05.5-1.03.88-1.71,1.12-2.02.25-.32.54-.48.88-.48s.57-.07.72-.23c.15-.15.27-.37.35-.65.08-.28.34-.76.77-1.42.43-.67,1.02-1.4,1.75-2.2,1.33-1.47,2-2.35,2-2.65ZM51.48,94.79c0-.2.27-.31.82-.33.55-.02.88.08.98.27.13.2.15.35.05.45-.13.13-.48.14-1.03.02-.55-.12-.82-.26-.82-.42Z"/>
  <path class="cls-5" d="M75.83,81.94c0-.47.26-.83.78-1.1.52-.27.92-.03,1.22.7.1.33.33.57.7.7.37.13,1.15.28,2.35.45,1.9.23,3.53.35,4.9.35,1.53,0,2.32.22,2.35.65,0,.17-.12.4-.35.7-.4.4-.54.67-.42.82.12.15.33.23.65.23s.63.04.95.12c.32.08.48.26.48.52s-.33.43-1,.5c-.67.07-1.34.16-2.02.27-.68.12-1.06.36-1.12.73-.1.53-.31.85-.62.95-.32.1-.67.07-1.08-.1-.4-.17-.97-.33-1.7-.48-.73-.15-1.43-.17-2.1-.07-.57.1-.94.12-1.12.07-.18-.05-.31-.21-.38-.48-.1-.4-.38-.67-.85-.82-.47-.15-.91-.13-1.32.05-.42.18-.62.49-.62.93,0,.27-.23.8-.7,1.6-.63,1.07-.72,1.67-.25,1.8.43.13,1.05-.2,1.85-1,.73-.7,1.1-.95,1.1-.75,0,.13-.12.37-.35.7-.23.33-.3.65-.2.95.07.2.32.33.75.4.43.07,1.27.1,2.5.1,2,0,3,.15,3,.45,0,.37-.17.67-.5.9-.33.23-.78.35-1.35.35-.53,0-1,.12-1.4.38s-.67.57-.8.97c-.1.27-.48.23-1.15-.1-.4-.2-.98-.38-1.73-.55-.75-.17-1.38-.25-1.9-.25s-.81.07-.88.2c0,.23.11.35.32.35s.33.11.33.32-.2.33-.6.33c-.27,0-.6.32-1,.98-.4.65-.52,1.06-.35,1.22.1.1.98.26,2.62.48,1.65.22,3.45.46,5.4.73,1.95.27,3.23.52,3.83.75.9.3,1.35.63,1.35,1,0,.27-.3.38-.9.35-.63-.07-.95,0-.95.2,0,.7-.25,1.13-.75,1.3-.57.23-2.43.4-5.6.5-1.8.13-3.26.17-4.38.1-1.12-.07-1.78-.12-2-.18-.22-.05-.6-.18-1.15-.4-.55-.22-1.14-.39-1.77-.52-.53-.13-.86-.55-.98-1.25-.12-.7.06-1.23.52-1.6.43-.33.64-.57.62-.7-.02-.13-.24-.25-.67-.35-.33-.1-.52-.24-.58-.43-.05-.18-.02-.62.08-1.32.13-1.03.58-2.38,1.35-4.05.5-1.03.88-1.71,1.12-2.02.25-.32.54-.48.88-.48s.57-.07.72-.23c.15-.15.27-.37.35-.65.08-.28.34-.76.77-1.42.43-.67,1.02-1.4,1.75-2.2,1.33-1.47,2-2.35,2-2.65ZM75.13,94.79c0-.2.27-.31.82-.33.55-.02.88.08.98.27.13.2.15.35.05.45-.13.13-.48.14-1.03.02-.55-.12-.82-.26-.82-.42Z"/>
  <path class="cls-5" d="M98.43,82.89c.37-.27.64-.34.83-.23.18.12.19.38.03.77-.07.3-.08.48-.03.52.05.05.21.04.47-.02.3-.1.48-.11.53-.02.05.08.04.29-.03.62-.07.4-.27.8-.6,1.2-.33.4-.5.82-.5,1.25,0,.33-.33,1.38-.97,3.12-.65,1.75-1.28,3.42-1.88,5-.6,1.58-.87,2.43-.8,2.53.13.1,1.75.28,4.85.55,2.33.2,3.95.43,4.85.7.9.27,1.35.67,1.35,1.2.03.5-.22,1.15-.75,1.95-.53.8-1.02,1.25-1.45,1.35-.37.1-1.75.11-4.15.02-2.4-.08-4.63-.21-6.7-.38-.5-.03-.9-.16-1.2-.38-.3-.22-.52-.39-.68-.52-.15-.13-.36-.17-.62-.1-.37.13-.55.03-.55-.3s.17-1.03.5-2.1c.33-1.07.65-1.87.95-2.4.2-.43.28-.71.25-.82-.03-.12-.09-.25-.18-.4-.08-.15-.16-.28-.23-.4-.07-.12-.05-.4.05-.85.1-.45.32-1.03.65-1.73l2-4.25c.53-1.17,1.21-2.36,2.03-3.58.82-1.22,1.47-1.99,1.97-2.32ZM95.98,99.84c-.17-.23-.4-.33-.7-.3-.3.03-.57.18-.8.45-.2.23-.29.45-.27.65.02.2.1.32.25.35.15.03.34-.03.58-.2.3-.27.73-.27,1.3,0,1.2.57,1.8.53,1.8-.1,0-.33-.33-.5-.97-.5s-1.04-.12-1.18-.35ZM98.48,87.06c0-.22-.11-.33-.32-.33s-.33.18-.33.55c0,.33.12.43.35.3.2-.13.3-.31.3-.52Z"/>
  <g>
    <path class="cls-7" d="M138.79,82.07c.06.21.09.47.09.8,0,.67-.14,1.33-.43,2-1.39-.01-3.04-.05-4.95-.11-1.91-.06-3.4-.09-4.46-.09h-.58l-2.79,4.85c.74-.01,1.61-.04,2.64-.09,1.02-.04,1.6-.07,1.75-.07-.2.47-.57,1.07-1.1,1.78-.72.03-1.32.04-1.81.04-.14,0-.5,0-1.07-.01-.57,0-1.13-.01-1.69-.01-.14.25-.49.92-1.03,1.99-.54,1.08-1.08,2.1-1.62,3.07-.54.97-1.15,1.98-1.82,3.04-.67,1.05-1.36,1.9-2.05,2.54-.7.64-1.33.96-1.9.96h-.03c-1.78-.03-3.31-.34-4.6-.93-1.29-.59-1.9-1.29-1.84-2.09h.37c3.25,0,5.81-1.19,7.69-3.58v-.31c0-.77-.12-1.61-.37-2.5-.24-.9-.53-1.56-.86-1.99l-.18.02c-.45,0-.77-.12-.95-.36-.18-.24-.31-.6-.37-1.09.59.04,1.29.07,2.08.07s2.41-.04,4.97-.13c1.59-2.58,2.63-4.28,3.1-5.09-4.21.28-6.99.73-8.34,1.36h-.15c-.27,0-.48-.06-.63-.18-.15-.12-.23-.29-.23-.51,0-.12.02-.24.06-.38.76-.53,2.09-1.01,4.02-1.42,1.92-.41,4.03-.73,6.33-.95,2.3-.21,4.45-.37,6.45-.48,2-.1,3.75-.16,5.24-.16.41,0,.77,0,1.07.02ZM120.86,91.21l-3.28.02c.55,1.22.83,2.3.83,3.25,0,.19-.01.37-.03.53.82-1.13,1.64-2.39,2.48-3.8Z"/>
    <path class="cls-6" d="M151.59,81.75c3.37,0,5.91.39,7.6,1.18,1.7.79,2.54,1.78,2.54,2.98,0,.74-.32,1.49-.97,2.25-.64.76-1.52,1.44-2.62,2.06-1.1.62-2.49,1.12-4.17,1.5-1.68.39-3.46.59-5.36.6,2.27.07,3.67.85,4.2,2.34.2.53.34,1.61.4,3.23.06,1.5.36,2.49.89,2.98.51.47,1.28.71,2.3.71h.03s-.01.11-.03.19c-.02.08-.07.22-.14.42-.07.2-.16.38-.26.55-.1.16-.26.31-.46.43-.2.13-.44.19-.71.19h-.12c-1.04,0-1.93-.09-2.67-.27s-1.29-.43-1.66-.76c-.37-.33-.63-.68-.8-1.07-.16-.39-.24-.84-.24-1.36s.11-1.34.34-2.41c.22-1.07.34-1.83.34-2.26,0-.61-.16-1.09-.48-1.43-.32-.35-.87-.55-1.67-.59-.31.46-.91,1.57-1.81,3.33-.9,1.76-1.74,3.31-2.53,4.67-.79,1.36-1.33,2.04-1.64,2.06l-3-.18c-1.64-.15-2.45-.35-2.45-.6,0-.04.04-.1.12-.16,1.14-.86,2.68-2.45,4.61-4.77,1.93-2.32,3.68-4.73,5.24-7.22s2.35-4.27,2.35-5.34c0-.1-.01-.2-.03-.29.47-.07.95-.11,1.44-.11,1.23,0,1.82.26,1.78.78-.02.62-.2,1.31-.54,2.05-.34.74-.68,1.37-1.04,1.89-.36.52-.88,1.24-1.58,2.16.55,0,1.36-.21,2.44-.62,1.07-.41,2.14-.92,3.2-1.5,1.06-.59,1.99-1.24,2.79-1.97.8-.73,1.2-1.36,1.2-1.91,0-1.23-1.95-1.86-5.85-1.89h-.21c-1.7,0-3.24.16-4.63.49-1.39.33-2.54.76-3.46,1.31-.92.55-1.69,1.18-2.31,1.9-.62.72-1.07,1.46-1.35,2.21-.28.76-.41,1.53-.41,2.31,0,.59.08,1.17.24,1.74-.51.25-1.22.38-2.11.38s-1.79-.13-2.61-.38c-.82-.25-1.31-.56-1.47-.91.04-1.51.48-2.9,1.32-4.16.84-1.26,1.89-2.29,3.17-3.1,1.28-.81,2.7-1.49,4.28-2.06,1.57-.56,3.09-.96,4.54-1.2,1.45-.24,2.8-.36,4.05-.36Z"/>
    <path class="cls-8" d="M176.58,83.51c.88,0,1.87.34,2.99,1.02,1.11.68,1.67,1.34,1.67,1.98,0,.49-.38,1.26-1.13,2.32-.76,1.06-1.57,2.02-2.44,2.88-.87.86-1.47,1.3-1.79,1.31-.27.01-.53.02-.8.02-.67,0-1.36-.05-2.05-.16-.7-.1-1.29-.23-1.79-.39-.5-.16-.96-.31-1.36-.47s-.73-.29-.95-.41l-.31-.16c1.25-.01,2.71-.36,4.38-1.05,1.68-.68,3.13-1.51,4.35-2.48,1.23-.97,1.84-1.84,1.84-2.61-1.76.04-3.59.38-5.49,1-1.9.62-3.56,1.38-4.98,2.27-1.42.89-2.59,1.85-3.51,2.88-.92,1.03-1.38,1.96-1.38,2.79,0,.5.62.76,1.87.76.86,0,2.07-.13,3.65-.38,1.57-.25,2.38-.38,2.42-.38h.03c.14-.01.27-.02.37-.02.72,0,1.2.14,1.46.41.26.27.38.59.38.95l-.03.38c-1.33.25-3,.83-5.01,1.74-2.01.9-3.74,1.81-5.18,2.72s-2.16,1.54-2.16,1.88c0,.13.14.2.43.2h.09c1.21,0,2.38-.15,3.53-.44,1.14-.3,2.12-.67,2.94-1.11.82-.44,1.54-.93,2.18-1.45.63-.52,1.11-1.01,1.43-1.47.32-.46.48-.84.51-1.13.08.07.19.18.32.31.13.13.31.4.54.8.23.4.34.79.34,1.16,0,.65-.49,1.37-1.47,2.15s-2.13,1.43-3.43,1.96c-1.31.53-2.45.81-3.43.86-.24.01-.5.02-.77.02-2.31,0-3.98-.35-5.03-1.05-.55-.37-.83-.8-.83-1.29,0-.28.16-.6.48-.95.32-.35.73-.69,1.23-1.02.5-.33,1.06-.67,1.67-1.01.61-.34,1.23-.65,1.84-.93.61-.28,1.17-.53,1.67-.76s1.07-.47,1.7-.73c-.1,0-.23,0-.38-.02-.15-.01-.47-.06-.94-.12s-.91-.14-1.33-.23c-.42-.09-.88-.22-1.39-.4-.51-.18-.95-.38-1.32-.61-.37-.23-.68-.52-.94-.87-.26-.35-.38-.74-.38-1.17,0-.71.64-1.63,1.92-2.75,1.28-1.12,2.77-2.17,4.49-3.14,1.72-.97,3.46-1.81,5.24-2.52,1.78-.71,3.14-1.08,4.08-1.09Z"/>
    <path class="cls-2" d="M190.99,91.71c1.21-.28,2.43-.76,3.68-1.45,1.25-.68,2.31-1.4,3.2-2.16s1.62-1.49,2.19-2.19c.57-.7.86-1.24.86-1.61,0-.28-.17-.42-.52-.42h-.03c-1.53,0-4.07,1.25-7.6,3.76-2.58,1.82-4.5,3.41-5.76,4.76-.41.44-.61.75-.61.91,0,.18.32.33.97.46.64.13,1.42.25,2.33.38s1.82.29,2.73.49c.91.2,1.69.53,2.33.98.64.45.97,1,.97,1.63,0,.98-.72,1.97-2.15,2.98s-3.17,1.83-5.21,2.47c-2.04.64-3.95.96-5.73.96-1.68,0-2.86-.2-3.54-.61-.68-.41-1.03-1.1-1.03-2.08v-.16c.08.07.19.17.34.28s.45.26.92.43.96.27,1.47.27h.06c.37,0,.98-.1,1.84-.3.86-.2,1.82-.48,2.9-.85,1.07-.36,2.1-.77,3.08-1.21.98-.44,1.81-.95,2.48-1.51.67-.56,1.01-1.11,1.01-1.65s-.67-.92-2.02-1.16c-.35-.06-.93-.14-1.75-.24-2.17-.27-3.64-.59-4.41-.96-.94-.47-1.41-1.13-1.41-1.96,0-.39.62-1.1,1.85-2.14,1.24-1.04,2.68-2.09,4.32-3.16,1.64-1.07,3.34-2.02,5.09-2.85,1.75-.83,3.06-1.25,3.94-1.25,1.7,0,3,.28,3.92.83s1.38,1.22,1.38,1.99v.13c-.04.5-.53,1.43-1.46,2.77-.93,1.34-2.02,2.62-3.26,3.83-1.25,1.21-2.25,1.81-3,1.81h-.03c-.74-.01-1.46-.21-2.18-.58-.72-.37-1.25-.74-1.59-1.11l-.55-.53Z"/>
    <path class="cls-4" d="M223.75,81.99c.08,0,.19,0,.34.02.14.01.39.05.74.1.35.05.65.12.92.19.27.07.5.19.69.33.19.15.27.32.23.51-.29.49-1.02,1.65-2.19,3.49-1.18,1.84-2.17,3.44-2.99,4.8-.82,1.36-1.6,2.91-2.35,4.63-.75,1.72-1.12,3.11-1.12,4.18,0,1.16.42,1.96,1.26,2.4-.51.06-1.09.09-1.75.09-2.64,0-3.95-.55-3.95-1.65,0-.52.13-1.13.38-1.82s.54-1.32.86-1.88c.32-.56.76-1.33,1.33-2.31.57-.99,1.02-1.79,1.35-2.41-1.21.1-2.51.3-3.92.6l-6.8,11.06c-.08,0-.19,0-.32-.01-.13,0-.37-.03-.7-.08s-.64-.1-.9-.18c-.27-.07-.5-.2-.7-.38-.2-.18-.31-.39-.31-.62,0-.22.09-.47.28-.76,2.1-3.1,3.83-5.69,5.18-7.79-2.82,1.04-4.84,2.11-6.07,3.23-.16-.09-.37-.2-.63-.33-.26-.13-.59-.36-1.01-.68-.42-.32-.63-.57-.63-.77,0-.28.42-.66,1.27-1.13.85-.47,2.06-.97,3.65-1.49,1.58-.52,3.23-.92,4.95-1.2,2.43-3.93,3.65-6.4,3.65-7.41,0-.34-.13-.51-.4-.51h-.03c-.78,0-1.72.4-2.84,1.2-1.11.8-2.09,1.79-2.93,2.96-.84,1.17-1.28,2.22-1.32,3.16-.12,0-.29-.01-.49-.03-.2-.02-.57-.08-1.1-.18-.53-.1-1-.22-1.39-.38-.4-.16-.77-.4-1.1-.72-.34-.33-.51-.7-.51-1.11,0-.85.56-1.74,1.69-2.67s2.6-1.73,4.43-2.38c1.83-.65,3.66-.99,5.5-1h.09c1.9,0,2.85.77,2.85,2.31,0,1.32-.82,3.44-2.45,6.36.55-.03,1.09-.04,1.62-.04.63,0,1.27.02,1.9.07.84-1.53,2.76-4.78,5.76-9.77Z"/>
  </g>
</svg>